<svg xmlns="http://www.w3.org/2000/svg" height="300" width="300" viewBox="0 0 300 300">
  <g>
    <g>
      <text x="144" y="187" font-size="36">📦</text>
      <text x="144" y="168" font-size="36">📦</text>
      <text x="144" y="149" font-size="36">📦</text>
      <text x="144" y="130" font-size="36">📦</text>
      <text x="144" y="111" font-size="36">📦</text>
      <text x="144" y="92" font-size="36">📦</text>
      <text x="144" y="73" font-size="36">📦</text>
    </g>
    <g>
      <text x="159.4" y="197.4" font-size="36">📦</text>
      <text x="159.4" y="178.4" font-size="36">📦</text>
      <text x="159.4" y="159.4" font-size="36">📦</text>
      <text x="159.4" y="140.4" font-size="36">📦</text>
      <text x="159.4" y="121.4" font-size="36">📦</text>
      <text x="159.4" y="102.4" font-size="36">📦</text>
    </g>
    <g>
      <text x="174.8" y="207.8" font-size="36">📦</text>
      <text x="174.8" y="188.8" font-size="36">📦</text>
      <text x="174.8" y="169.8" font-size="36">📦</text>
      <text x="174.8" y="150.8" font-size="36">📦</text>
      <text x="174.8" y="131.8" font-size="36">📦</text>
    </g>
    <g>
      <text x="190.2" y="218.2" font-size="36">📦</text>
      <text x="190.2" y="199.2" font-size="36">📦</text>
      <text x="190.2" y="180.2" font-size="36">📦</text>
      <text x="190.2" y="161.2" font-size="36">📦</text>
    </g>
    <g>
      <text x="205.6" y="228.6" font-size="36">📦</text>
      <text x="205.6" y="209.6" font-size="36">📦</text>
      <text x="205.6" y="190.6" font-size="36">📦</text>
    </g>
    <g>
      <text x="221" y="239" font-size="36">📦</text>
      <text x="221" y="220" font-size="36">📦</text>
    </g>
    <g>
      <text x="236.4" y="249.4" font-size="36">📦</text>
    </g>
    <g>
      <text x="125" y="196" font-size="36">📦</text>
      <text x="125" y="177" font-size="36">📦</text>
      <text x="125" y="158" font-size="36">📦</text>
      <text x="125" y="139" font-size="36">📦</text>
      <text x="125" y="120" font-size="36">📦</text>
      <text x="125" y="101" font-size="36">📦</text>
    </g>
    <g>
      <text x="140.4" y="206.4" font-size="36">📦</text>
      <text x="140.4" y="187.4" font-size="36">📦</text>
      <text x="140.4" y="168.4" font-size="36">📦</text>
      <text x="140.4" y="149.4" font-size="36">📦</text>
      <text x="140.4" y="130.4" font-size="36">📦</text>
    </g>
    <g>
      <text x="155.8" y="216.8" font-size="36">📦</text>
      <text x="155.8" y="197.8" font-size="36">📦</text>
      <text x="155.8" y="178.8" font-size="36">📦</text>
      <text x="155.8" y="159.8" font-size="36">📦</text>
    </g>
    <g>
      <text x="171.2" y="227.2" font-size="36">📦</text>
      <text x="171.2" y="208.2" font-size="36">📦</text>
      <text x="171.2" y="189.2" font-size="36">📦</text>
    </g>
    <g>
      <text x="186.6" y="237.6" font-size="36">📦</text>
      <text x="186.6" y="218.6" font-size="36">📦</text>
    </g>
    <g>
      <text x="202" y="248" font-size="36">📦</text>
    </g>
    <g>
      <text x="106" y="205" font-size="36">📦</text>
      <text x="106" y="186" font-size="36">📦</text>
      <text x="106" y="167" font-size="36">📦</text>
      <text x="106" y="148" font-size="36">📦</text>
      <text x="106" y="129" font-size="36">📦</text>
    </g>
    <g>
      <text x="121.4" y="215.4" font-size="36">📦</text>
      <text x="121.4" y="196.4" font-size="36">📦</text>
      <text x="121.4" y="177.4" font-size="36">📦</text>
      <text x="121.4" y="158.4" font-size="36">📦</text>
    </g>
    <g>
      <text x="136.8" y="225.8" font-size="36">📦</text>
      <text x="136.8" y="206.8" font-size="36">📦</text>
      <text x="136.8" y="187.8" font-size="36">📦</text>
    </g>
    <g>
      <text x="152.2" y="236.2" font-size="36">📦</text>
      <text x="152.2" y="217.2" font-size="36">📦</text>
    </g>
    <g>
      <text x="167.6" y="246.6" font-size="36">📦</text>
    </g>
    <g>
      <text x="87" y="214" font-size="36">📦</text>
      <text x="87" y="195" font-size="36">📦</text>
      <text x="87" y="176" font-size="36">📦</text>
      <text x="87" y="157" font-size="36">📦</text>
    </g>
    <g>
      <text x="102.4" y="224.4" font-size="36">📦</text>
      <text x="102.4" y="205.4" font-size="36">📦</text>
      <text x="102.4" y="186.4" font-size="36">📦</text>
    </g>
    <g>
      <text x="117.80000000000001" y="234.8" font-size="36">📦</text>
      <text x="117.80000000000001" y="215.8" font-size="36">📦</text>
    </g>
    <g>
      <text x="133.2" y="245.2" font-size="36">📦</text>
    </g>
    <g>
      <text x="68" y="223" font-size="36">📦</text>
      <text x="68" y="204" font-size="36">📦</text>
      <text x="68" y="185" font-size="36">📦</text>
    </g>
    <g>
      <text x="83.4" y="233.4" font-size="36">📦</text>
      <text x="83.4" y="214.4" font-size="36">📦</text>
    </g>
    <g>
      <text x="98.80000000000001" y="243.8" font-size="36">📦</text>
    </g>
    <g>
      <text x="49" y="232" font-size="36">📦</text>
      <text x="49" y="213" font-size="36">📦</text>
    </g>
    <g>
      <text x="64.4" y="242.4" font-size="36">📦</text>
    </g>
    <g>
      <text x="30" y="241" font-size="36">📦</text>
    </g>
  </g>
</svg>
